# xmcd
#
# Track frame offsets: 
#        150
#        11367
#        30624
#        40901
#        54188
#        69783
#        82793
#        99362
#        132516
#        149088
#        168048
#        181858
#
# Disc length: 2673 seconds
#
# Revision: 0
# Processed by: cddbd v1.5.2PL0 Copyright (c) Steve Scherf et al.
# Submitted via: ExactAudioCopy v0.99pb5
#
DISCID=8a0a6f0c
DTITLE=Cheaters, The - Train To Wilderness
DYEAR=2008
DGENRE=Blues
TTITLE0=Big Hip Girl
TTITLE1=Freewheelin' Man
TTITLE2=Aint Losing My Thrill
TTITLE3=Voodoo Queen
TTITLE4=Woman
TTITLE5=Honeymaker
TTITLE6=That's What I'll Do
TTITLE7=Spam
TTITLE8=Come Back Baby
TTITLE9=Train To Wilderness
TTITLE10=Talking Woman Blues
TTITLE11=Falling Down
EXTD=
EXTT0=
EXTT1=
EXTT2=
EXTT3=
EXTT4=
EXTT5=
EXTT6=
EXTT7=
EXTT8=
EXTT9=
EXTT10=
EXTT11=
PLAYORDER=
